# xmcd
#
# Track frame offsets:
#	150
#	16935
#	30457
#	45800
#	65492
#	81180
#	96515
#	114392
#	130077
#	147457
#	163880
#	180595
#
# Disc length: 2604 seconds
#
# Revision: 0
# Processed by: cddbd v1.5.1PL0 Copyright (c) Steve Scherf et al.
# Submitted via: dBpowerAMP V4.0
#
DISCID=990a2a0c
DTITLE=Bellamy Brothers - Bellamy Brothers Disc 2
DYEAR=1900
DGENRE=Country
TTITLE0=Feelin' The Feelin'
TTITLE1=Do You Love As Good As You Look
TTITLE2=I Need More Of You
TTITLE3=World's Greatest Lover
TTITLE4=Kids Of The Baby Boom
TTITLE5=You'll Never Be Sorry
TTITLE6=Get Into Reggae Cowboy (Dance Mix)
TTITLE7=Cowboy Beat
TTITLE8=Hard Way To Make An Easy Livin'
TTITLE9=Sante Fe
TTITLE10=For All The Wrong Reasons
TTITLE11=Big Love
EXTD=
EXTT0=
EXTT1=
EXTT2=
EXTT3=
EXTT4=
EXTT5=
EXTT6=
EXTT7=
EXTT8=
EXTT9=
EXTT10=
EXTT11=
PLAYORDER=
